<mxfile host="Electron" agent="Mozilla/5.0 (Windows NT 10.0; Win64; x64) AppleWebKit/537.36 (KHTML, like Gecko) draw.io/28.0.6 Chrome/138.0.7204.100 Electron/37.2.3 Safari/537.36" version="28.0.6">
  <diagram name="lab" id="PUwVI5Qg16OJxoL7ORO9">
    <mxGraphModel dx="815" dy="481" grid="0" gridSize="1" guides="1" tooltips="1" connect="1" arrows="1" fold="1" page="1" pageScale="1" pageWidth="827" pageHeight="1169" math="0" shadow="0">
      <root>
        <mxCell id="8JhZW0T434BZyeVD91KX-0" />
        <mxCell id="8JhZW0T434BZyeVD91KX-1" parent="8JhZW0T434BZyeVD91KX-0" />
        <mxCell id="A23hf9OCnYL9DI1eEpV3-0" value="engine" style="shape=folder;fontStyle=1;spacingTop=10;tabWidth=40;tabHeight=14;tabPosition=left;html=1;whiteSpace=wrap;fillColor=#ffe6cc;strokeColor=#d79b00;" vertex="1" parent="8JhZW0T434BZyeVD91KX-1">
          <mxGeometry x="45" y="46" width="70" height="50" as="geometry" />
        </mxCell>
        <mxCell id="A23hf9OCnYL9DI1eEpV3-1" value="quote request" style="shape=folder;fontStyle=1;spacingTop=10;tabWidth=40;tabHeight=14;tabPosition=left;html=1;whiteSpace=wrap;fillColor=#ffe6cc;strokeColor=#d79b00;" vertex="1" parent="8JhZW0T434BZyeVD91KX-1">
          <mxGeometry x="140" y="46" width="70" height="50" as="geometry" />
        </mxCell>
        <mxCell id="A23hf9OCnYL9DI1eEpV3-2" value="api" style="shape=folder;fontStyle=1;spacingTop=10;tabWidth=40;tabHeight=14;tabPosition=left;html=1;whiteSpace=wrap;fillColor=#ffe6cc;strokeColor=#d79b00;" vertex="1" parent="8JhZW0T434BZyeVD91KX-1">
          <mxGeometry x="45" y="108" width="70" height="50" as="geometry" />
        </mxCell>
        <mxCell id="A23hf9OCnYL9DI1eEpV3-3" value="lab" style="shape=folder;fontStyle=1;spacingTop=10;tabWidth=40;tabHeight=14;tabPosition=left;html=1;whiteSpace=wrap;fillColor=#CCCCCC;strokeColor=#d79b00;" vertex="1" parent="8JhZW0T434BZyeVD91KX-1">
          <mxGeometry x="140" y="108" width="70" height="50" as="geometry" />
        </mxCell>
        <mxCell id="A23hf9OCnYL9DI1eEpV3-4" value=":quote request start" style="shape=umlLifeline;perimeter=lifelinePerimeter;whiteSpace=wrap;html=1;container=1;dropTarget=0;collapsible=0;recursiveResize=0;outlineConnect=0;portConstraint=eastwest;newEdgeStyle={&quot;curved&quot;:0,&quot;rounded&quot;:0};" vertex="1" parent="8JhZW0T434BZyeVD91KX-1">
          <mxGeometry x="86" y="191" width="71" height="257" as="geometry" />
        </mxCell>
        <mxCell id="A23hf9OCnYL9DI1eEpV3-5" value=":quote&lt;div&gt;Request&lt;br&gt;Producer&lt;/div&gt;" style="shape=umlLifeline;perimeter=lifelinePerimeter;whiteSpace=wrap;html=1;container=1;dropTarget=0;collapsible=0;recursiveResize=0;outlineConnect=0;portConstraint=eastwest;newEdgeStyle={&quot;curved&quot;:0,&quot;rounded&quot;:0};" vertex="1" parent="8JhZW0T434BZyeVD91KX-1">
          <mxGeometry x="218" y="191" width="71" height="257" as="geometry" />
        </mxCell>
        <mxCell id="A23hf9OCnYL9DI1eEpV3-6" value="generateQuoteRequest()" style="html=1;verticalAlign=bottom;endArrow=block;curved=0;rounded=0;" edge="1" parent="8JhZW0T434BZyeVD91KX-1">
          <mxGeometry width="80" relative="1" as="geometry">
            <mxPoint x="123" y="312" as="sourcePoint" />
            <mxPoint x="253" y="311.9999999999999" as="targetPoint" />
          </mxGeometry>
        </mxCell>
        <mxCell id="A23hf9OCnYL9DI1eEpV3-7" value="main" style="html=1;verticalAlign=bottom;endArrow=block;curved=0;rounded=0;" edge="1" parent="8JhZW0T434BZyeVD91KX-1">
          <mxGeometry width="80" relative="1" as="geometry">
            <mxPoint x="42" y="266" as="sourcePoint" />
            <mxPoint x="122" y="266" as="targetPoint" />
          </mxGeometry>
        </mxCell>
        <mxCell id="A23hf9OCnYL9DI1eEpV3-8" value=":request&lt;br&gt;Quote&lt;br&gt;Queue" style="shape=umlLifeline;perimeter=lifelinePerimeter;whiteSpace=wrap;html=1;container=1;dropTarget=0;collapsible=0;recursiveResize=0;outlineConnect=0;portConstraint=eastwest;newEdgeStyle={&quot;curved&quot;:0,&quot;rounded&quot;:0};" vertex="1" parent="8JhZW0T434BZyeVD91KX-1">
          <mxGeometry x="335" y="191" width="71" height="257" as="geometry" />
        </mxCell>
        <mxCell id="A23hf9OCnYL9DI1eEpV3-9" value="sendMessage()" style="html=1;verticalAlign=bottom;endArrow=block;curved=0;rounded=0;" edge="1" parent="8JhZW0T434BZyeVD91KX-1">
          <mxGeometry width="80" relative="1" as="geometry">
            <mxPoint x="254" y="344" as="sourcePoint" />
            <mxPoint x="370" y="343.9999999999999" as="targetPoint" />
          </mxGeometry>
        </mxCell>
        <mxCell id="A23hf9OCnYL9DI1eEpV3-10" value=":ServiceBus queue" style="shape=umlLifeline;perimeter=lifelinePerimeter;whiteSpace=wrap;html=1;container=1;dropTarget=0;collapsible=0;recursiveResize=0;outlineConnect=0;portConstraint=eastwest;newEdgeStyle={&quot;curved&quot;:0,&quot;rounded&quot;:0};" vertex="1" parent="8JhZW0T434BZyeVD91KX-1">
          <mxGeometry x="428" y="191" width="71" height="257" as="geometry" />
        </mxCell>
        <mxCell id="A23hf9OCnYL9DI1eEpV3-11" value="publish()" style="html=1;verticalAlign=bottom;endArrow=block;curved=0;rounded=0;" edge="1" parent="8JhZW0T434BZyeVD91KX-1">
          <mxGeometry width="80" relative="1" as="geometry">
            <mxPoint x="372" y="377" as="sourcePoint" />
            <mxPoint x="463.0000000000002" y="377" as="targetPoint" />
          </mxGeometry>
        </mxCell>
        <mxCell id="A23hf9OCnYL9DI1eEpV3-12" value=":main" style="shape=umlLifeline;perimeter=lifelinePerimeter;whiteSpace=wrap;html=1;container=1;dropTarget=0;collapsible=0;recursiveResize=0;outlineConnect=0;portConstraint=eastwest;newEdgeStyle={&quot;curved&quot;:0,&quot;rounded&quot;:0};" vertex="1" parent="8JhZW0T434BZyeVD91KX-1">
          <mxGeometry x="89" y="515" width="71" height="444" as="geometry" />
        </mxCell>
        <mxCell id="A23hf9OCnYL9DI1eEpV3-31" value="" style="html=1;points=[[0,0,0,0,5],[0,1,0,0,-5],[1,0,0,0,5],[1,1,0,0,-5]];perimeter=orthogonalPerimeter;outlineConnect=0;targetShapes=umlLifeline;portConstraint=eastwest;newEdgeStyle={&quot;curved&quot;:0,&quot;rounded&quot;:0};" vertex="1" parent="A23hf9OCnYL9DI1eEpV3-12">
          <mxGeometry x="30.5" y="60" width="10" height="367" as="geometry" />
        </mxCell>
        <mxCell id="A23hf9OCnYL9DI1eEpV3-13" value=":broker&lt;br&gt;Client" style="shape=umlLifeline;perimeter=lifelinePerimeter;whiteSpace=wrap;html=1;container=1;dropTarget=0;collapsible=0;recursiveResize=0;outlineConnect=0;portConstraint=eastwest;newEdgeStyle={&quot;curved&quot;:0,&quot;rounded&quot;:0};" vertex="1" parent="8JhZW0T434BZyeVD91KX-1">
          <mxGeometry x="235" y="515" width="71" height="446" as="geometry" />
        </mxCell>
        <mxCell id="A23hf9OCnYL9DI1eEpV3-23" value="" style="html=1;points=[[0,0,0,0,5],[0,1,0,0,-5],[1,0,0,0,5],[1,1,0,0,-5]];perimeter=orthogonalPerimeter;outlineConnect=0;targetShapes=umlLifeline;portConstraint=eastwest;newEdgeStyle={&quot;curved&quot;:0,&quot;rounded&quot;:0};" vertex="1" parent="A23hf9OCnYL9DI1eEpV3-13">
          <mxGeometry x="30.5" y="73" width="10" height="351" as="geometry" />
        </mxCell>
        <mxCell id="A23hf9OCnYL9DI1eEpV3-24" value="process message" style="html=1;align=left;spacingLeft=2;endArrow=block;rounded=0;edgeStyle=orthogonalEdgeStyle;curved=0;rounded=0;" edge="1" target="A23hf9OCnYL9DI1eEpV3-23" parent="A23hf9OCnYL9DI1eEpV3-13">
          <mxGeometry relative="1" as="geometry">
            <mxPoint x="39" y="172" as="sourcePoint" />
            <Array as="points">
              <mxPoint x="69" y="202" />
            </Array>
          </mxGeometry>
        </mxCell>
        <mxCell id="A23hf9OCnYL9DI1eEpV3-14" value="listenForNewMessages()" style="html=1;verticalAlign=bottom;endArrow=block;curved=0;rounded=0;" edge="1" parent="8JhZW0T434BZyeVD91KX-1">
          <mxGeometry width="80" relative="1" as="geometry">
            <mxPoint x="130" y="617" as="sourcePoint" />
            <mxPoint x="265" y="617" as="targetPoint" />
          </mxGeometry>
        </mxCell>
        <mxCell id="A23hf9OCnYL9DI1eEpV3-15" value="main" style="html=1;verticalAlign=bottom;endArrow=block;curved=0;rounded=0;" edge="1" parent="8JhZW0T434BZyeVD91KX-1">
          <mxGeometry width="80" relative="1" as="geometry">
            <mxPoint x="45" y="590" as="sourcePoint" />
            <mxPoint x="125" y="590" as="targetPoint" />
          </mxGeometry>
        </mxCell>
        <mxCell id="A23hf9OCnYL9DI1eEpV3-17" value="listen()" style="html=1;verticalAlign=bottom;endArrow=block;curved=0;rounded=0;" edge="1" parent="8JhZW0T434BZyeVD91KX-1">
          <mxGeometry width="80" relative="1" as="geometry">
            <mxPoint x="275" y="634" as="sourcePoint" />
            <mxPoint x="433" y="633.5" as="targetPoint" />
          </mxGeometry>
        </mxCell>
        <mxCell id="A23hf9OCnYL9DI1eEpV3-18" value=":ServiceBus inbound queue" style="shape=umlLifeline;perimeter=lifelinePerimeter;whiteSpace=wrap;html=1;container=1;dropTarget=0;collapsible=0;recursiveResize=0;outlineConnect=0;portConstraint=eastwest;newEdgeStyle={&quot;curved&quot;:0,&quot;rounded&quot;:0};" vertex="1" parent="8JhZW0T434BZyeVD91KX-1">
          <mxGeometry x="398" y="515" width="71" height="296" as="geometry" />
        </mxCell>
        <mxCell id="A23hf9OCnYL9DI1eEpV3-22" value="receive message" style="html=1;verticalAlign=bottom;endArrow=block;curved=0;rounded=0;dashed=1;" edge="1" parent="8JhZW0T434BZyeVD91KX-1">
          <mxGeometry width="80" relative="1" as="geometry">
            <mxPoint x="434" y="662" as="sourcePoint" />
            <mxPoint x="274" y="662" as="targetPoint" />
          </mxGeometry>
        </mxCell>
        <mxCell id="A23hf9OCnYL9DI1eEpV3-25" value=":message&lt;br&gt;Handler" style="shape=umlLifeline;perimeter=lifelinePerimeter;whiteSpace=wrap;html=1;container=1;dropTarget=0;collapsible=0;recursiveResize=0;outlineConnect=0;portConstraint=eastwest;newEdgeStyle={&quot;curved&quot;:0,&quot;rounded&quot;:0};fillColor=#CCCCCC;" vertex="1" parent="8JhZW0T434BZyeVD91KX-1">
          <mxGeometry x="488" y="515" width="71" height="442" as="geometry" />
        </mxCell>
        <mxCell id="A23hf9OCnYL9DI1eEpV3-28" value="" style="html=1;points=[[0,0,0,0,5],[0,1,0,0,-5],[1,0,0,0,5],[1,1,0,0,-5]];perimeter=orthogonalPerimeter;outlineConnect=0;targetShapes=umlLifeline;portConstraint=eastwest;newEdgeStyle={&quot;curved&quot;:0,&quot;rounded&quot;:0};" vertex="1" parent="A23hf9OCnYL9DI1eEpV3-25">
          <mxGeometry x="30.5" y="216" width="10" height="80" as="geometry" />
        </mxCell>
        <mxCell id="A23hf9OCnYL9DI1eEpV3-29" value="processMessage()" style="html=1;verticalAlign=bottom;startArrow=none;endArrow=block;startSize=8;curved=0;rounded=0;entryX=0;entryY=0;entryDx=0;entryDy=5;startFill=0;" edge="1" target="A23hf9OCnYL9DI1eEpV3-28" parent="8JhZW0T434BZyeVD91KX-1">
          <mxGeometry relative="1" as="geometry">
            <mxPoint x="276" y="736" as="sourcePoint" />
          </mxGeometry>
        </mxCell>
        <mxCell id="A23hf9OCnYL9DI1eEpV3-30" value="return [ ProcessingResult ]" style="html=1;verticalAlign=bottom;endArrow=open;dashed=1;endSize=8;curved=0;rounded=0;" edge="1" parent="8JhZW0T434BZyeVD91KX-1">
          <mxGeometry relative="1" as="geometry">
            <mxPoint x="522" y="777" as="sourcePoint" />
            <mxPoint x="276" y="777" as="targetPoint" />
          </mxGeometry>
        </mxCell>
        <mxCell id="A23hf9OCnYL9DI1eEpV3-32" value=":ServiceBus outbound queue" style="shape=umlLifeline;perimeter=lifelinePerimeter;whiteSpace=wrap;html=1;container=1;dropTarget=0;collapsible=0;recursiveResize=0;outlineConnect=0;portConstraint=eastwest;newEdgeStyle={&quot;curved&quot;:0,&quot;rounded&quot;:0};" vertex="1" parent="8JhZW0T434BZyeVD91KX-1">
          <mxGeometry x="574" y="514.5" width="71" height="439.5" as="geometry" />
        </mxCell>
        <mxCell id="A23hf9OCnYL9DI1eEpV3-33" value=":ServiceBus deadleter queue" style="shape=umlLifeline;perimeter=lifelinePerimeter;whiteSpace=wrap;html=1;container=1;dropTarget=0;collapsible=0;recursiveResize=0;outlineConnect=0;portConstraint=eastwest;newEdgeStyle={&quot;curved&quot;:0,&quot;rounded&quot;:0};" vertex="1" parent="8JhZW0T434BZyeVD91KX-1">
          <mxGeometry x="656" y="514" width="71" height="441" as="geometry" />
        </mxCell>
        <mxCell id="A23hf9OCnYL9DI1eEpV3-34" value="alt" style="shape=umlFrame;whiteSpace=wrap;html=1;pointerEvents=0;" vertex="1" parent="8JhZW0T434BZyeVD91KX-1">
          <mxGeometry x="199" y="790" width="517" height="135" as="geometry" />
        </mxCell>
        <mxCell id="A23hf9OCnYL9DI1eEpV3-35" value="[ if suceeded ]" style="text;html=1;align=center;verticalAlign=middle;whiteSpace=wrap;rounded=0;" vertex="1" parent="8JhZW0T434BZyeVD91KX-1">
          <mxGeometry x="276" y="799" width="95" height="30" as="geometry" />
        </mxCell>
        <mxCell id="A23hf9OCnYL9DI1eEpV3-36" value="publish()" style="html=1;verticalAlign=bottom;endArrow=block;curved=0;rounded=0;" edge="1" parent="8JhZW0T434BZyeVD91KX-1" target="A23hf9OCnYL9DI1eEpV3-32">
          <mxGeometry width="80" relative="1" as="geometry">
            <mxPoint x="276" y="848" as="sourcePoint" />
            <mxPoint x="356" y="848" as="targetPoint" />
          </mxGeometry>
        </mxCell>
        <mxCell id="A23hf9OCnYL9DI1eEpV3-37" value="[ else ]" style="text;html=1;align=center;verticalAlign=middle;whiteSpace=wrap;rounded=0;" vertex="1" parent="8JhZW0T434BZyeVD91KX-1">
          <mxGeometry x="284" y="865" width="40" height="30" as="geometry" />
        </mxCell>
        <mxCell id="A23hf9OCnYL9DI1eEpV3-38" value="publish()" style="html=1;verticalAlign=bottom;endArrow=block;curved=0;rounded=0;" edge="1" parent="8JhZW0T434BZyeVD91KX-1" target="A23hf9OCnYL9DI1eEpV3-33">
          <mxGeometry width="80" relative="1" as="geometry">
            <mxPoint x="276" y="904" as="sourcePoint" />
            <mxPoint x="609" y="904" as="targetPoint" />
          </mxGeometry>
        </mxCell>
        <mxCell id="A23hf9OCnYL9DI1eEpV3-39" value="" style="line;strokeWidth=1;fillColor=none;align=left;verticalAlign=middle;spacingTop=-1;spacingLeft=3;spacingRight=3;rotatable=0;labelPosition=right;points=[];portConstraint=eastwest;strokeColor=inherit;dashed=1;" vertex="1" parent="8JhZW0T434BZyeVD91KX-1">
          <mxGeometry x="199" y="861" width="517" height="8" as="geometry" />
        </mxCell>
      </root>
    </mxGraphModel>
  </diagram>
</mxfile>
